<svg width="72" height="72" viewBox="0 0 72 72" fill="none" xmlns="http://www.w3.org/2000/svg">
<rect width="72" height="72" fill="url(#paint0_linear)" style="mix-blend-mode:multiply"/>
<path d="M38.6865 22.3105H27.2607V54H22.5977V22.3105H11.1963V18.4531H38.6865V22.3105ZM53.3008 46.9932C53.3008 45.7725 52.8369 44.8285 51.9092 44.1611C50.9977 43.4775 49.3945 42.8916 47.0996 42.4033C44.821 41.915 43.0062 41.3291 41.6553 40.6455C40.3206 39.9619 39.3278 39.1481 38.6768 38.2041C38.042 37.2601 37.7246 36.137 37.7246 34.835C37.7246 32.6702 38.6361 30.8392 40.459 29.3418C42.2982 27.8444 44.6419 27.0957 47.4902 27.0957C50.485 27.0957 52.9102 27.8688 54.7656 29.415C56.6374 30.9613 57.5732 32.9388 57.5732 35.3477H53.0322C53.0322 34.1107 52.5033 33.0446 51.4453 32.1494C50.4036 31.2542 49.0853 30.8066 47.4902 30.8066C45.8464 30.8066 44.5605 31.1647 43.6328 31.8809C42.7051 32.597 42.2412 33.5329 42.2412 34.6885C42.2412 35.779 42.6725 36.6009 43.5352 37.1543C44.3978 37.7077 45.9521 38.2367 48.1982 38.7412C50.4606 39.2458 52.2917 39.848 53.6914 40.5479C55.0911 41.2477 56.1247 42.0941 56.792 43.0869C57.4756 44.0635 57.8174 45.2598 57.8174 46.6758C57.8174 49.0358 56.8734 50.932 54.9854 52.3643C53.0973 53.7803 50.6478 54.4883 47.6367 54.4883C45.5208 54.4883 43.6491 54.1139 42.0215 53.3652C40.3939 52.6165 39.1162 51.5749 38.1885 50.2402C37.277 48.8893 36.8213 47.4326 36.8213 45.8701H41.3379C41.4193 47.3838 42.0215 48.5882 43.1445 49.4834C44.2839 50.3623 45.7812 50.8018 47.6367 50.8018C49.3457 50.8018 50.7129 50.46 51.7383 49.7764C52.7799 49.0765 53.3008 48.1488 53.3008 46.9932Z" fill="white"/>
<defs>
<linearGradient id="paint0_linear" x1="69" y1="-5" x2="-2.94298e-06" y2="85" gradientUnits="userSpaceOnUse">
<stop stop-color="#7135D2"/>
<stop offset="1" stop-color="#1BA7C6"/>
</linearGradient>
</defs>
</svg>
